<?xml version="1.0" standalone="no"?>
<!DOCTYPE svg PUBLIC "-//W3C//DTD SVG 20010904//EN"
 "http://www.w3.org/TR/2001/REC-SVG-20010904/DTD/svg10.dtd">
<svg version="1.0" xmlns="http://www.w3.org/2000/svg"
 width="241.000000pt" height="241.000000pt" viewBox="0 0 241.000000 241.000000"
 preserveAspectRatio="xMidYMid meet">
<metadata>
Created by potrace 1.14, written by Peter Selinger 2001-2017
</metadata>
<g transform="translate(0.000000,241.000000) scale(0.100000,-0.100000)"
fill="#000000" stroke="none">
<path d="M0 1205 l0 -1205 1205 0 1205 0 0 1205 0 1205 -1205 0 -1205 0 0
-1205z m605 485 c50 -47 51 -84 6 -263 -50 -199 -55 -284 -16 -322 43 -44 118
-24 180 48 53 61 120 201 148 307 47 177 87 260 126 260 10 0 30 -9 43 -20
l25 -19 -43 -88 c-42 -84 -66 -165 -174 -583 -50 -190 -126 -322 -213 -366
-41 -22 -154 -30 -200 -15 -80 27 -113 116 -62 166 36 37 45 31 45 -29 0 -79
28 -110 99 -110 128 0 212 134 271 433 11 57 19 105 17 107 -1 2 -21 -21 -44
-51 -61 -78 -111 -108 -188 -113 -72 -5 -98 6 -125 51 -31 51 -26 132 21 319
42 172 45 224 13 259 -27 30 -72 24 -109 -15 -40 -43 -69 -140 -60 -198 7 -39
6 -40 -16 -33 -44 13 -62 40 -61 89 1 80 62 160 152 201 51 22 133 15 165 -15z
m791 5 c73 -48 90 -214 41 -400 -15 -55 -47 -165 -72 -245 -54 -173 -65 -240
-41 -259 70 -58 279 214 358 466 20 64 25 72 43 67 62 -19 61 -53 -5 -216 -47
-117 -79 -232 -80 -284 0 -30 24 -48 56 -40 69 18 222 209 302 379 106 222
128 402 56 454 l-26 19 32 27 c39 34 55 34 85 1 46 -50 44 -156 -5 -306 -100
-301 -350 -618 -488 -618 -78 0 -120 53 -103 129 l9 43 -63 -65 c-70 -72 -127
-107 -175 -107 -48 0 -87 25 -100 65 -14 43 -7 78 59 298 69 229 83 307 79
439 -3 120 -12 138 -69 138 -66 0 -114 -87 -113 -203 0 -63 -1 -67 -20 -61
-54 16 -74 66 -56 133 14 53 93 138 145 157 48 17 115 13 151 -11z"/>
</g>
</svg>
